<svg id="visual" viewBox="0 0 960 300" width="960" height="300" xmlns="http://www.w3.org/2000/svg" xmlns:xlink="http://www.w3.org/1999/xlink" version="1.1"><rect x="0" y="0" width="960" height="300" fill="#000f21"></rect><path d="M0 167L20 156.3C40 145.7 80 124.3 120 121.7C160 119 200 135 240 139C280 143 320 135 360 137.8C400 140.7 440 154.3 480 145.5C520 136.7 560 105.3 600 100.8C640 96.3 680 118.7 720 130C760 141.3 800 141.7 840 140.3C880 139 920 136 940 134.5L960 133L960 301L940 301C920 301 880 301 840 301C800 301 760 301 720 301C680 301 640 301 600 301C560 301 520 301 480 301C440 301 400 301 360 301C320 301 280 301 240 301C200 301 160 301 120 301C80 301 40 301 20 301L0 301Z" fill="#f1b35f"></path><path d="M0 190L20 174.7C40 159.3 80 128.7 120 125.8C160 123 200 148 240 156.5C280 165 320 157 360 143.5C400 130 440 111 480 107.7C520 104.3 560 116.7 600 128.8C640 141 680 153 720 151.5C760 150 800 135 840 133.5C880 132 920 144 940 150L960 156L960 301L940 301C920 301 880 301 840 301C800 301 760 301 720 301C680 301 640 301 600 301C560 301 520 301 480 301C440 301 400 301 360 301C320 301 280 301 240 301C200 301 160 301 120 301C80 301 40 301 20 301L0 301Z" fill="#e79448"></path><path d="M0 141L20 146.3C40 151.7 80 162.3 120 162.5C160 162.7 200 152.3 240 159.3C280 166.3 320 190.7 360 191.2C400 191.7 440 168.3 480 161.7C520 155 560 165 600 165.2C640 165.3 680 155.7 720 162.5C760 169.3 800 192.7 840 201.5C880 210.3 920 204.7 940 201.8L960 199L960 301L940 301C920 301 880 301 840 301C800 301 760 301 720 301C680 301 640 301 600 301C560 301 520 301 480 301C440 301 400 301 360 301C320 301 280 301 240 301C200 301 160 301 120 301C80 301 40 301 20 301L0 301Z" fill="#db7337"></path><path d="M0 206L20 213.7C40 221.3 80 236.7 120 243.7C160 250.7 200 249.3 240 247.5C280 245.7 320 243.3 360 242C400 240.7 440 240.3 480 231.5C520 222.7 560 205.3 600 199.7C640 194 680 200 720 197.2C760 194.3 800 182.7 840 186.7C880 190.7 920 210.3 940 220.2L960 230L960 301L940 301C920 301 880 301 840 301C800 301 760 301 720 301C680 301 640 301 600 301C560 301 520 301 480 301C440 301 400 301 360 301C320 301 280 301 240 301C200 301 160 301 120 301C80 301 40 301 20 301L0 301Z" fill="#cd512c"></path><path d="M0 238L20 236.8C40 235.7 80 233.3 120 237.2C160 241 200 251 240 248.3C280 245.7 320 230.3 360 225.8C400 221.3 440 227.7 480 232.3C520 237 560 240 600 244.7C640 249.3 680 255.7 720 259.2C760 262.7 800 263.3 840 266C880 268.7 920 273.3 940 275.7L960 278L960 301L940 301C920 301 880 301 840 301C800 301 760 301 720 301C680 301 640 301 600 301C560 301 520 301 480 301C440 301 400 301 360 301C320 301 280 301 240 301C200 301 160 301 120 301C80 301 40 301 20 301L0 301Z" fill="#be2626"></path></svg>